<?xml version="1.0" encoding="UTF-8" standalone="no"?>
<!-- Created with Inkscape (http://www.inkscape.org/) -->
<svg
   xmlns:dc="http://purl.org/dc/elements/1.1/"
   xmlns:cc="http://creativecommons.org/ns#"
   xmlns:rdf="http://www.w3.org/1999/02/22-rdf-syntax-ns#"
   xmlns:svg="http://www.w3.org/2000/svg"
   xmlns="http://www.w3.org/2000/svg"
   xmlns:sodipodi="http://sodipodi.sourceforge.net/DTD/sodipodi-0.dtd"
   xmlns:inkscape="http://www.inkscape.org/namespaces/inkscape"
   width="32"
   height="32"
   id="svg2"
   sodipodi:version="0.32"
   inkscape:version="0.46"
   version="1.0"
   sodipodi:docname="icon.svg"
   inkscape:output_extension="org.inkscape.output.svg.inkscape"
   inkscape:export-filename="/home/thesmyth/Projects/mpris/src/icon.png"
   inkscape:export-xdpi="103.3"
   inkscape:export-ydpi="103.3">
  <defs
     id="defs4">
    <inkscape:perspective
       sodipodi:type="inkscape:persp3d"
       inkscape:vp_x="0 : 526.18109 : 1"
       inkscape:vp_y="0 : 1000 : 0"
       inkscape:vp_z="744.09448 : 526.18109 : 1"
       inkscape:persp3d-origin="372.04724 : 350.78739 : 1"
       id="perspective10" />
  </defs>
  <sodipodi:namedview
     id="base"
     pagecolor="#ffffff"
     bordercolor="#666666"
     borderopacity="1.0"
     gridtolerance="10000"
     guidetolerance="10"
     objecttolerance="10"
     inkscape:pageopacity="0.0"
     inkscape:pageshadow="2"
     inkscape:zoom="5.6568543"
     inkscape:cx="46.135763"
     inkscape:cy="17.497401"
     inkscape:document-units="px"
     inkscape:current-layer="layer1"
     showgrid="false"
     inkscape:window-width="1175"
     inkscape:window-height="897"
     inkscape:window-x="57"
     inkscape:window-y="14" />
  <metadata
     id="metadata7">
    <rdf:RDF>
      <cc:Work
         rdf:about="">
        <dc:format>image/svg+xml</dc:format>
        <dc:type
           rdf:resource="http://purl.org/dc/dcmitype/StillImage" />
      </cc:Work>
    </rdf:RDF>
  </metadata>
  <g
     inkscape:label="Layer 1"
     inkscape:groupmode="layer"
     id="layer1">
    <text
       xml:space="preserve"
       style="font-size:10px;font-style:normal;font-weight:normal;fill:#000000;fill-opacity:1;stroke:none;stroke-width:1px;stroke-linecap:butt;stroke-linejoin:miter;stroke-opacity:1;font-family:Bitstream Vera Sans"
       x="0.4419418"
       y="9.2084332"
       id="text2407"><tspan
         sodipodi:role="line"
         id="tspan2409"
         x="0.4419418"
         y="9.2084332">MPRIS</tspan></text>
    <path
       style="opacity:0.85062241;fill:#000000;fill-opacity:1;fill-rule:nonzero;stroke:none;stroke-opacity:1"
       d="M 1.84375 14.625 C 1.4237374 14.625 1.0754248 15.09539 1.0625 15.65625 L 1.0625 22.9375 C 1.0754248 23.498361 1.4237374 23.96875 1.84375 23.96875 L 30.34375 23.96875 C 30.763763 23.96875 31.112076 23.498361 31.125 22.9375 L 31.125 15.65625 C 31.112074 15.09539 30.763762 14.625 30.34375 14.625 L 1.84375 14.625 z "
       id="rect2411" />
    <path
       sodipodi:type="arc"
       style="opacity:0.85062244;fill:#4d4d4d;fill-opacity:1;fill-rule:nonzero;stroke:none;stroke-opacity:1"
       id="path3187"
       sodipodi:cx="3.2514286"
       sodipodi:cy="22.687656"
       sodipodi:rx="0.9785853"
       sodipodi:ry="1.0417198"
       d="M 4.2300139,22.687656 A 0.9785853,1.0417198 0 1 1 2.2728433,22.687656 A 0.9785853,1.0417198 0 1 1 4.2300139,22.687656 z"
       transform="translate(-0.126269,-1.0101525)" />
    <path
       sodipodi:type="arc"
       style="opacity:0.85062244;fill:#aa0000;fill-opacity:1;fill-rule:nonzero;stroke:none;stroke-opacity:1"
       id="path3189"
       sodipodi:cx="3.2514286"
       sodipodi:cy="22.687656"
       sodipodi:rx="0.9785853"
       sodipodi:ry="1.0417198"
       d="M 4.2300139,22.687656 A 0.9785853,1.0417198 0 1 1 2.2728433,22.687656 A 0.9785853,1.0417198 0 1 1 4.2300139,22.687656 z"
       transform="translate(-9.4701866e-2,-5.77681)" />
    <path
       sodipodi:type="arc"
       style="opacity:0.85062244;fill:#999999;fill-opacity:1;fill-rule:nonzero;stroke:none;stroke-opacity:1"
       id="path3193"
       sodipodi:cx="3.2514286"
       sodipodi:cy="22.687656"
       sodipodi:rx="0.9785853"
       sodipodi:ry="1.0417198"
       d="M 4.2300139,22.687656 A 0.9785853,1.0417198 0 1 1 2.2728433,22.687656 A 0.9785853,1.0417198 0 1 1 4.2300139,22.687656 z"
       transform="translate(6.7016964,-5.9845314)" />
    <path
       sodipodi:type="arc"
       style="opacity:0.85062244;fill:#999999;fill-opacity:1;fill-rule:nonzero;stroke:none;stroke-opacity:1"
       id="path3195"
       sodipodi:cx="3.2514286"
       sodipodi:cy="22.687656"
       sodipodi:rx="0.9785853"
       sodipodi:ry="1.0417198"
       d="M 4.2300139,22.687656 A 0.9785853,1.0417198 0 1 1 2.2728433,22.687656 A 0.9785853,1.0417198 0 1 1 4.2300139,22.687656 z"
       transform="translate(9.7798214,-5.9532814)" />
    <path
       sodipodi:type="arc"
       style="opacity:0.85062244;fill:#999999;fill-opacity:1;fill-rule:nonzero;stroke:none;stroke-opacity:1"
       id="path3197"
       sodipodi:cx="3.2514286"
       sodipodi:cy="22.687656"
       sodipodi:rx="0.9785853"
       sodipodi:ry="1.0417198"
       d="M 4.2300139,22.687656 A 0.9785853,1.0417198 0 1 1 2.2728433,22.687656 A 0.9785853,1.0417198 0 1 1 4.2300139,22.687656 z"
       transform="translate(12.826696,-5.9845314)" />
    <path
       sodipodi:type="arc"
       style="opacity:0.85062243999999998;fill:#999999;fill-opacity:1;fill-rule:nonzero;stroke:none;stroke-opacity:1"
       id="path3199"
       sodipodi:cx="3.2514286"
       sodipodi:cy="22.687656"
       sodipodi:rx="0.9785853"
       sodipodi:ry="1.0417198"
       d="M 4.2300139,22.687656 A 0.9785853,1.0417198 0 1 1 2.2728433,22.687656 A 0.9785853,1.0417198 0 1 1 4.2300139,22.687656 z"
       transform="translate(6.7173214,-3.3751564)" />
    <path
       sodipodi:type="arc"
       style="opacity:0.85062243999999998;fill:#999999;fill-opacity:1;fill-rule:nonzero;stroke:none;stroke-opacity:1"
       id="path3201"
       sodipodi:cx="3.2514286"
       sodipodi:cy="22.687656"
       sodipodi:rx="0.9785853"
       sodipodi:ry="1.0417198"
       d="M 4.2300139,22.687656 A 0.9785853,1.0417198 0 1 1 2.2728433,22.687656 A 0.9785853,1.0417198 0 1 1 4.2300139,22.687656 z"
       transform="translate(9.748571,-3.4220314)" />
    <path
       sodipodi:type="arc"
       style="opacity:0.85062243999999998;fill:#999999;fill-opacity:1;fill-rule:nonzero;stroke:none;stroke-opacity:1"
       id="path3203"
       sodipodi:cx="3.2514286"
       sodipodi:cy="22.687656"
       sodipodi:rx="0.9785853"
       sodipodi:ry="1.0417198"
       d="M 4.2300139,22.687656 A 0.9785853,1.0417198 0 1 1 2.2728433,22.687656 A 0.9785853,1.0417198 0 1 1 4.2300139,22.687656 z"
       transform="translate(12.811071,-3.2970314)" />
    <path
       sodipodi:type="arc"
       style="opacity:0.85062244;fill:#999999;fill-opacity:1;fill-rule:nonzero;stroke:none;stroke-opacity:1"
       id="path3205"
       sodipodi:cx="3.2514286"
       sodipodi:cy="22.687656"
       sodipodi:rx="0.9785853"
       sodipodi:ry="1.0417198"
       d="M 4.2300139,22.687656 A 0.9785853,1.0417198 0 1 1 2.2728433,22.687656 A 0.9785853,1.0417198 0 1 1 4.2300139,22.687656 z"
       transform="translate(6.7485714,-0.7345314)" />
    <path
       sodipodi:type="arc"
       style="opacity:0.85062244;fill:#999999;fill-opacity:1;fill-rule:nonzero;stroke:none;stroke-opacity:1"
       id="path3207"
       sodipodi:cx="3.2514286"
       sodipodi:cy="22.687656"
       sodipodi:rx="0.9785853"
       sodipodi:ry="1.0417198"
       d="M 4.2300139,22.687656 A 0.9785853,1.0417198 0 1 1 2.2728433,22.687656 A 0.9785853,1.0417198 0 1 1 4.2300139,22.687656 z"
       transform="translate(9.779821,-0.7657814)" />
    <path
       sodipodi:type="arc"
       style="opacity:0.85062244;fill:#999999;fill-opacity:1;fill-rule:nonzero;stroke:none;stroke-opacity:1"
       id="path3209"
       sodipodi:cx="3.2514286"
       sodipodi:cy="22.687656"
       sodipodi:rx="0.9785853"
       sodipodi:ry="1.0417198"
       d="M 4.2300139,22.687656 A 0.9785853,1.0417198 0 1 1 2.2728433,22.687656 A 0.9785853,1.0417198 0 1 1 4.2300139,22.687656 z"
       transform="translate(12.842321,-0.7657814)" />
    <path
       style="opacity:0.85062244;fill:#999999;fill-opacity:1;fill-rule:nonzero;stroke:none;stroke-opacity:1"
       d="M 21.03125,15.96875 L 20.4375,15.96875 C 19.863177,15.969789 19.40625,16.397983 19.40625,16.9375 C 19.40625,17.477679 19.862471,17.906251 20.4375,17.90625 L 21.03125,17.90625 L 21.03125,15.96875 z"
       id="path3215" />
    <path
       style="opacity:0.85062244;fill:#999999;fill-opacity:1;fill-rule:nonzero;stroke:none;stroke-opacity:1"
       d="M 22.15625,15.96875 L 22.75,15.96875 C 23.324323,15.969789 23.78125,16.397983 23.78125,16.9375 C 23.78125,17.477679 23.325029,17.906251 22.75,17.90625 L 22.15625,17.90625 L 22.15625,15.96875 z"
       id="path3222" />
    <path
       style="opacity:0.85062244;fill:#999999;fill-opacity:1;fill-rule:nonzero;stroke:none;stroke-opacity:1"
       d="M 21.039062,20.718749 L 20.445312,20.718749 C 19.870989,20.719788 19.414062,21.147982 19.414062,21.687499 C 19.414062,22.227678 19.870283,22.65625 20.445312,22.656249 L 21.039062,22.656249 L 21.039062,20.718749 z"
       id="path3224" />
    <path
       style="opacity:0.85062244;fill:#999999;fill-opacity:1;fill-rule:nonzero;stroke:none;stroke-opacity:1"
       d="M 22.148438,20.71875 L 22.742188,20.71875 C 23.316511,20.719789 23.773438,21.147983 23.773438,21.6875 C 23.773438,22.227679 23.317217,22.656251 22.742188,22.65625 L 22.148438,22.65625 L 22.148438,20.71875 z"
       id="path3226" />
  </g>
</svg>
